<svg xmlns="http://www.w3.org/2000/svg" xmlns:xlink="http://www.w3.org/1999/xlink" viewBox="0,0,256,256" width="64px" height="64px"><defs><linearGradient x1="32" y1="6.739" x2="32" y2="57.422" gradientUnits="userSpaceOnUse" id="color-1"><stop offset="0" stop-color="#34aaf1"></stop><stop offset="1" stop-color="#c822ff"></stop></linearGradient><linearGradient x1="32" y1="11.598" x2="32" y2="59.357" gradientUnits="userSpaceOnUse" id="color-2"><stop offset="0" stop-color="#6dc7ff"></stop><stop offset="1" stop-color="#e6abff"></stop></linearGradient></defs><g fill="none" fill-rule="nonzero" stroke="none" stroke-width="1" stroke-linecap="butt" stroke-linejoin="miter" stroke-miterlimit="10" stroke-dasharray="" stroke-dashoffset="0" font-family="none" font-weight="none" font-size="none" text-anchor="none" style="mix-blend-mode: normal"><g transform="scale(4,4)"><path d="M53,56h-12c-1.654,0 -3,-1.346 -3,-3c0,-1.654 1.346,-3 3,-3c0.805,0 0.988,-0.55 1,-1.012v-15.988h-20v15c0,1.497 1.374,2 2,2c1.654,0 3,1.346 3,3c0,1.654 -1.346,3 -3,3h-12c-1.654,0 -3,-1.346 -3,-3c0,-1.654 1.346,-3 3,-3c0.805,0 0.988,-0.55 1,-1.012v-32.988c0,-1.497 -1.374,-2 -2,-2c-1.654,0 -3,-1.346 -3,-3c0,-1.654 1.346,-3 3,-3h12c1.654,0 3,1.346 3,3c0,1.654 -1.346,3 -3,3c-0.805,0 -0.988,0.55 -1,1.012v11.988h20v-11c0,-1.497 -1.374,-2 -2,-2c-1.654,0 -3,-1.346 -3,-3c0,-1.654 1.346,-3 3,-3h12c1.654,0 3,1.346 3,3c0,1.654 -1.346,3 -3,3c-0.805,0 -0.988,0.55 -1,1.012v32.988c0,1.497 1.374,2 2,2c1.654,0 3,1.346 3,3c0,1.654 -1.346,3 -3,3zM21,31h22c0.552,0 1,0.448 1,1v17c0,1.206 -0.799,3 -3,3c-0.551,0 -1,0.449 -1,1c0,0.551 0.449,1 1,1h12c0.551,0 1,-0.449 1,-1c0,-0.551 -0.449,-1 -1,-1c-1.924,0 -4,-1.529 -4,-4v-33c0,-1.206 0.799,-3 3,-3c0.551,0 1,-0.449 1,-1c0,-0.551 -0.449,-1 -1,-1h-12c-0.551,0 -1,0.449 -1,1c0,0.551 0.449,1 1,1c1.924,0 4,1.529 4,4v12c0,0.552 -0.448,1 -1,1h-22c-0.552,0 -1,-0.448 -1,-1v-13c0,-1.206 0.799,-3 3,-3c0.551,0 1,-0.449 1,-1c0,-0.551 -0.449,-1 -1,-1h-12c-0.551,0 -1,0.449 -1,1c0,0.551 0.449,1 1,1c1.924,0 4,1.529 4,4v33c0,1.206 -0.799,3 -3,3c-0.551,0 -1,0.449 -1,1c0,0.551 0.449,1 1,1h12c0.551,0 1,-0.449 1,-1c0,-0.551 -0.449,-1 -1,-1c-1.924,0 -4,-1.529 -4,-4v-16c0,-0.552 0.448,-1 1,-1z" fill="url(#color-1)"></path><path d="M45.044,52c0.63,-0.883 0.956,-1.956 0.956,-3v-33c0,-1.632 -0.604,-2.991 -1.527,-4h3.482c-0.629,0.883 -0.955,1.956 -0.955,3v33c0,1.632 0.604,2.991 1.527,4zM16.044,52c0.63,-0.883 0.956,-1.956 0.956,-3v-33c0,-1.632 -0.604,-2.991 -1.527,-4h3.482c-0.629,0.883 -0.955,1.956 -0.955,3v33c0,1.632 0.604,2.991 1.527,4z" fill="url(#color-2)"></path></g></g></svg>